<mxfile host="app.diagrams.net" modified="2024-04-18T18:43:06.392Z" agent="Mozilla/5.0 (Macintosh; Intel Mac OS X 10_15_7) AppleWebKit/537.36 (KHTML, like Gecko) Chrome/123.0.0.0 Safari/537.36" etag="bzHDRXW63qiMD34sZvWi" version="24.2.2" type="device">
  <diagram name="PÃ¡gina-1" id="Z3GAuZbCKtPWVkpXf7ge">
    <mxGraphModel dx="1122" dy="1893" grid="1" gridSize="10" guides="1" tooltips="1" connect="1" arrows="1" fold="1" page="1" pageScale="1" pageWidth="827" pageHeight="1169" math="0" shadow="0">
      <root>
        <mxCell id="0" />
        <mxCell id="1" parent="0" />
        <mxCell id="Kcn1DjW40Tzr1kG3GbEv-14" value="4" style="ellipse;whiteSpace=wrap;html=1;aspect=fixed;" vertex="1" parent="1">
          <mxGeometry x="525" y="270" width="90" height="90" as="geometry" />
        </mxCell>
        <mxCell id="Kcn1DjW40Tzr1kG3GbEv-6" value="" style="ellipse;whiteSpace=wrap;html=1;aspect=fixed;" vertex="1" parent="1">
          <mxGeometry x="369" y="140" width="90" height="90" as="geometry" />
        </mxCell>
        <mxCell id="Kcn1DjW40Tzr1kG3GbEv-2" value="1" style="ellipse;whiteSpace=wrap;html=1;aspect=fixed;" vertex="1" parent="1">
          <mxGeometry x="530" y="20" width="80" height="80" as="geometry" />
        </mxCell>
        <mxCell id="Kcn1DjW40Tzr1kG3GbEv-3" value="" style="endArrow=classic;html=1;rounded=0;entryX=0.5;entryY=0;entryDx=0;entryDy=0;" edge="1" parent="1" target="Kcn1DjW40Tzr1kG3GbEv-2">
          <mxGeometry width="50" height="50" relative="1" as="geometry">
            <mxPoint x="570" y="-60" as="sourcePoint" />
            <mxPoint x="440" y="220" as="targetPoint" />
          </mxGeometry>
        </mxCell>
        <mxCell id="Kcn1DjW40Tzr1kG3GbEv-4" value="2" style="ellipse;whiteSpace=wrap;html=1;aspect=fixed;" vertex="1" parent="1">
          <mxGeometry x="374" y="145" width="80" height="80" as="geometry" />
        </mxCell>
        <mxCell id="Kcn1DjW40Tzr1kG3GbEv-5" value="" style="endArrow=classic;html=1;rounded=0;entryX=1;entryY=0;entryDx=0;entryDy=0;exitX=0;exitY=1;exitDx=0;exitDy=0;" edge="1" parent="1" target="Kcn1DjW40Tzr1kG3GbEv-4" source="Kcn1DjW40Tzr1kG3GbEv-2">
          <mxGeometry width="50" height="50" relative="1" as="geometry">
            <mxPoint x="400" y="60" as="sourcePoint" />
            <mxPoint x="270" y="340" as="targetPoint" />
          </mxGeometry>
        </mxCell>
        <mxCell id="Kcn1DjW40Tzr1kG3GbEv-7" value="This == Other" style="text;html=1;align=center;verticalAlign=middle;whiteSpace=wrap;rounded=0;" vertex="1" parent="1">
          <mxGeometry x="414" y="80" width="100" height="30" as="geometry" />
        </mxCell>
        <mxCell id="Kcn1DjW40Tzr1kG3GbEv-8" value="True" style="text;html=1;align=center;verticalAlign=middle;whiteSpace=wrap;rounded=0;" vertex="1" parent="1">
          <mxGeometry x="384" y="230" width="60" height="30" as="geometry" />
        </mxCell>
        <mxCell id="Kcn1DjW40Tzr1kG3GbEv-9" value="3" style="ellipse;whiteSpace=wrap;html=1;aspect=fixed;" vertex="1" parent="1">
          <mxGeometry x="680" y="140" width="80" height="80" as="geometry" />
        </mxCell>
        <mxCell id="Kcn1DjW40Tzr1kG3GbEv-10" value="" style="endArrow=classic;html=1;rounded=0;entryX=0;entryY=0;entryDx=0;entryDy=0;exitX=1;exitY=1;exitDx=0;exitDy=0;" edge="1" parent="1" target="Kcn1DjW40Tzr1kG3GbEv-9" source="Kcn1DjW40Tzr1kG3GbEv-2">
          <mxGeometry width="50" height="50" relative="1" as="geometry">
            <mxPoint x="720" y="60" as="sourcePoint" />
            <mxPoint x="590" y="340" as="targetPoint" />
          </mxGeometry>
        </mxCell>
        <mxCell id="Kcn1DjW40Tzr1kG3GbEv-11" value="~(This == Other)" style="text;html=1;align=center;verticalAlign=middle;whiteSpace=wrap;rounded=0;" vertex="1" parent="1">
          <mxGeometry x="630" y="80" width="100" height="30" as="geometry" />
        </mxCell>
        <mxCell id="Kcn1DjW40Tzr1kG3GbEv-12" value="4" style="ellipse;whiteSpace=wrap;html=1;aspect=fixed;" vertex="1" parent="1">
          <mxGeometry x="530" y="275" width="80" height="80" as="geometry" />
        </mxCell>
        <mxCell id="Kcn1DjW40Tzr1kG3GbEv-17" value="" style="endArrow=classic;html=1;rounded=0;entryX=1;entryY=0;entryDx=0;entryDy=0;exitX=0;exitY=1;exitDx=0;exitDy=0;" edge="1" parent="1" source="Kcn1DjW40Tzr1kG3GbEv-9" target="Kcn1DjW40Tzr1kG3GbEv-12">
          <mxGeometry width="50" height="50" relative="1" as="geometry">
            <mxPoint x="750" y="208" as="sourcePoint" />
            <mxPoint x="844" y="272" as="targetPoint" />
          </mxGeometry>
        </mxCell>
        <mxCell id="Kcn1DjW40Tzr1kG3GbEv-18" value="~(other instanceof NTree)" style="text;html=1;align=center;verticalAlign=middle;whiteSpace=wrap;rounded=0;" vertex="1" parent="1">
          <mxGeometry x="514" y="220" width="140" height="30" as="geometry" />
        </mxCell>
        <mxCell id="Kcn1DjW40Tzr1kG3GbEv-22" value="5" style="ellipse;whiteSpace=wrap;html=1;aspect=fixed;" vertex="1" parent="1">
          <mxGeometry x="850" y="290" width="80" height="80" as="geometry" />
        </mxCell>
        <mxCell id="Kcn1DjW40Tzr1kG3GbEv-23" value="" style="endArrow=classic;html=1;rounded=0;exitX=1;exitY=1;exitDx=0;exitDy=0;entryX=0;entryY=0;entryDx=0;entryDy=0;" edge="1" parent="1" source="Kcn1DjW40Tzr1kG3GbEv-9" target="Kcn1DjW40Tzr1kG3GbEv-22">
          <mxGeometry width="50" height="50" relative="1" as="geometry">
            <mxPoint x="702" y="218" as="sourcePoint" />
            <mxPoint x="603" y="307" as="targetPoint" />
          </mxGeometry>
        </mxCell>
        <mxCell id="Kcn1DjW40Tzr1kG3GbEv-24" value="&lt;div&gt;&lt;span style=&quot;background-color: initial;&quot;&gt;other instanceof NTree&lt;/span&gt;&lt;br&gt;&lt;/div&gt;" style="text;html=1;align=center;verticalAlign=middle;whiteSpace=wrap;rounded=0;" vertex="1" parent="1">
          <mxGeometry x="800" y="220" width="140" height="30" as="geometry" />
        </mxCell>
        <mxCell id="Kcn1DjW40Tzr1kG3GbEv-25" value="" style="endArrow=classic;html=1;rounded=0;exitX=0;exitY=1;exitDx=0;exitDy=0;entryX=1;entryY=0;entryDx=0;entryDy=0;" edge="1" parent="1" source="Kcn1DjW40Tzr1kG3GbEv-22" target="Kcn1DjW40Tzr1kG3GbEv-30">
          <mxGeometry width="50" height="50" relative="1" as="geometry">
            <mxPoint x="758" y="218" as="sourcePoint" />
            <mxPoint x="760" y="450" as="targetPoint" />
          </mxGeometry>
        </mxCell>
        <mxCell id="Kcn1DjW40Tzr1kG3GbEv-26" value="" style="endArrow=classic;html=1;rounded=0;exitX=1;exitY=1;exitDx=0;exitDy=0;entryX=0.244;entryY=0.025;entryDx=0;entryDy=0;entryPerimeter=0;" edge="1" parent="1" source="Kcn1DjW40Tzr1kG3GbEv-22" target="Kcn1DjW40Tzr1kG3GbEv-32">
          <mxGeometry width="50" height="50" relative="1" as="geometry">
            <mxPoint x="872" y="368" as="sourcePoint" />
            <mxPoint x="1010" y="450" as="targetPoint" />
          </mxGeometry>
        </mxCell>
        <mxCell id="Kcn1DjW40Tzr1kG3GbEv-29" value="4" style="ellipse;whiteSpace=wrap;html=1;aspect=fixed;" vertex="1" parent="1">
          <mxGeometry x="675" y="440" width="90" height="90" as="geometry" />
        </mxCell>
        <mxCell id="Kcn1DjW40Tzr1kG3GbEv-30" value="6" style="ellipse;whiteSpace=wrap;html=1;aspect=fixed;" vertex="1" parent="1">
          <mxGeometry x="680" y="445" width="80" height="80" as="geometry" />
        </mxCell>
        <mxCell id="Kcn1DjW40Tzr1kG3GbEv-31" value="4" style="ellipse;whiteSpace=wrap;html=1;aspect=fixed;" vertex="1" parent="1">
          <mxGeometry x="990" y="440" width="90" height="90" as="geometry" />
        </mxCell>
        <mxCell id="Kcn1DjW40Tzr1kG3GbEv-32" value="7" style="ellipse;whiteSpace=wrap;html=1;aspect=fixed;" vertex="1" parent="1">
          <mxGeometry x="995" y="445" width="80" height="80" as="geometry" />
        </mxCell>
        <mxCell id="Kcn1DjW40Tzr1kG3GbEv-33" value="equalTrees(this, ((NTree&amp;lt;T&amp;gt;) other))" style="text;html=1;align=center;verticalAlign=middle;whiteSpace=wrap;rounded=0;" vertex="1" parent="1">
          <mxGeometry x="630" y="365" width="200" height="30" as="geometry" />
        </mxCell>
        <mxCell id="Kcn1DjW40Tzr1kG3GbEv-34" value="~(equalTrees(this, ((NTree&amp;lt;T&amp;gt;) other)))" style="text;html=1;align=center;verticalAlign=middle;whiteSpace=wrap;rounded=0;" vertex="1" parent="1">
          <mxGeometry x="960" y="370" width="220" height="30" as="geometry" />
        </mxCell>
        <mxCell id="Kcn1DjW40Tzr1kG3GbEv-35" value="False" style="text;html=1;align=center;verticalAlign=middle;whiteSpace=wrap;rounded=0;" vertex="1" parent="1">
          <mxGeometry x="535" y="360" width="60" height="30" as="geometry" />
        </mxCell>
        <mxCell id="Kcn1DjW40Tzr1kG3GbEv-36" value="True" style="text;html=1;align=center;verticalAlign=middle;whiteSpace=wrap;rounded=0;" vertex="1" parent="1">
          <mxGeometry x="690" y="530" width="60" height="30" as="geometry" />
        </mxCell>
        <mxCell id="Kcn1DjW40Tzr1kG3GbEv-37" value="False" style="text;html=1;align=center;verticalAlign=middle;whiteSpace=wrap;rounded=0;" vertex="1" parent="1">
          <mxGeometry x="1005" y="530" width="60" height="30" as="geometry" />
        </mxCell>
      </root>
    </mxGraphModel>
  </diagram>
</mxfile>
